<svg width="304" height="304" viewBox="0 0 304 304" fill="none" xmlns="http://www.w3.org/2000/svg">
<path d="M152.855 277.938C145.906 278.019 138.919 277.856 131.97 277.938H130.226V275.453C130.181 238.422 130.173 201.395 130.199 164.373C130.199 162.961 129.866 162.54 128.442 162.54H108.923H91.6191V142.079H130.173V71.1346C130.173 71.1346 130.173 69.0436 128.069 69.0436C107.819 69.0436 80.0556 69.1405 57.2456 69.0436C53.8621 69.0468 51.2737 71.1626 49.258 73.3206L45.2643 78.7517V69.0436V48.032H152.855V277.938Z" fill="white"/>
<path d="M103.136 32.8109C93.8569 36.6773 85.0475 41.6253 76.8833 47.5564C65.2322 54.6033 50.431 72.879 50.431 72.879C43.7244 81.7659 38.0591 91.4218 33.5505 101.65C30.4706 108.763 26.784 116.179 25.1901 123.782C24.1784 128.684 23.5926 133.68 22.7805 138.636C22.5276 140.184 23.0468 140.659 24.631 140.659H60.8948C61.5072 140.659 62.1196 140.768 62.7719 140.768V161.881H60.8282H24.5644C22.9669 161.868 22.6341 162.384 22.9003 163.85C23.3796 166.457 23.7257 169.078 24.1384 171.684C25.6755 181.061 28.3265 190.212 32.0329 198.935C39.8638 217.557 51.9294 234.01 67.2316 246.933C79.5727 257.469 93.7053 265.606 108.927 270.938C115.949 273.424 123.284 275.65 130.6 276.987V278.976V301.936V304L127.139 303.403C113.283 300.88 99.8172 296.492 87.0942 290.354C72.9534 283.505 59.9065 274.52 48.3942 263.701C35.4112 251.587 24.6306 237.227 16.5502 221.284C11.324 211.309 7.34781 200.703 4.7152 189.716C3.45049 184.162 2.54523 178.514 1.50684 172.906C-0.25044 163.212 -0.117313 153.382 0.175566 143.592C0.335319 138.432 1.33377 133.3 1.93284 128.168C3.11699 119.501 5.17815 110.983 8.08331 102.75C14.1055 85.1684 23.2182 68.8531 34.975 54.6033C49.1735 37.4081 66.8 23.4945 86.6815 13.7884C94.8075 9.71195 103.318 6.48656 112.082 4.1618C117.913 2.65467 123.797 1.37836 129.655 0.020578C129.952 -0.00685932 130.25 -0.00685932 130.547 0.020578V24.2977C120.696 26.0805 112.391 28.9345 103.136 32.8109Z" fill="white"/>
<path d="M151.145 277.938C158.094 278.019 165.081 277.856 172.03 277.938H173.774V275.453C173.818 238.422 173.827 201.395 173.801 164.373C173.801 162.961 174.133 162.54 175.558 162.54H195.077H212.381V142.079H173.827V71.1346C173.827 71.1346 173.827 69.0436 175.931 69.0436C196.181 69.0436 223.944 69.1405 246.754 69.0436C250.138 69.0468 252.726 71.1626 254.742 73.3206L258.736 78.7517V69.0436V48.032H151.145V277.938Z" fill="white"/>
<path d="M200.864 32.8109C210.143 36.6773 218.953 41.6253 227.117 47.5564C238.768 54.6033 253.569 72.879 253.569 72.879C260.276 81.7659 265.941 91.4218 270.45 101.65C273.529 108.763 277.216 116.179 278.81 123.782C279.822 128.684 280.407 133.68 281.219 138.636C281.472 140.184 280.953 140.659 279.369 140.659H243.105C242.493 140.659 241.88 140.768 241.228 140.768V161.881H243.172H279.436C281.033 161.868 281.366 162.384 281.1 163.85C280.62 166.457 280.274 169.078 279.862 171.684C278.325 181.061 275.674 190.212 271.967 198.935C264.136 217.557 252.071 234.01 236.768 246.933C224.427 257.469 210.295 265.606 195.073 270.938C188.052 273.424 180.716 275.65 173.4 276.987V278.976V301.936V304L176.861 303.403C190.717 300.88 204.183 296.492 216.906 290.354C231.047 283.505 244.094 274.52 255.606 263.701C268.589 251.587 279.369 237.227 287.45 221.284C292.676 211.309 296.652 200.703 299.285 189.716C300.55 184.162 301.455 178.514 302.493 172.906C304.25 163.212 304.117 153.382 303.824 143.592C303.665 138.432 302.666 133.3 302.067 128.168C300.883 119.501 298.822 110.983 295.917 102.75C289.895 85.1684 280.782 68.8531 269.025 54.6033C254.827 37.4081 237.2 23.4945 217.319 13.7884C209.193 9.71195 200.682 6.48656 191.918 4.1618C186.087 2.65467 180.203 1.37836 174.345 0.020578C174.049 -0.00685932 173.75 -0.00685932 173.453 0.020578V24.2977C183.305 26.0805 191.609 28.9345 200.864 32.8109Z" fill="white"/>
</svg>
